<svg xmlns="http://www.w3.org/2000/svg" viewBox="0 0 32 32"><g data-name="Layer 9"><path d="M26.36 11H22.51a1 1 0 0 0-1 .93L21 19.1a1 1 0 0 1-1 .9H12a1 1 0 0 1-1-.89l-.5-7.18a1.25 1.25 0 0 0-.07-.26L10.21 8.1a1 1 0 0 1 .25-.77A1 1 0 0 1 11.21 7h9.58a1 1 0 0 1 1 1 1 1 0 0 0 1 1 1 1 0 0 0 1-1 3 3 0 0 0-3-2.88H11.21a3 3 0 0 0-3 3.25l.27 4.83L9 19.29a2.94 2.94 0 0 0 .5 1.38 3.18 3.18 0 0 0-1.21.62 1 1 0 0 0 1.35 1.48C9.77 22.69 11 22 16 22s6.23.69 6.36.77a1 1 0 0 0 1.35-.06 1 1 0 0 0 0-1.42 3.17 3.17 0 0 0-1.22-.62 2.89 2.89 0 0 0 .51-1.4h0l.51-6.2V13h2.85A1.59 1.59 0 0 1 28 14.34a1.48 1.48 0 0 1-.38 1.17A1.51 1.51 0 0 1 26.5 16a.9.9 0 0 1-.24 0 1 1 0 0 0-1.21.93l-.38 7.17a1 1 0 0 1-1 .92H8.33a1 1 0 0 1-1-.87l-.2-3.68h0L7 16.91a1 1 0 0 0-.39-.74A1 1 0 0 0 5.74 16a.9.9 0 0 1-.24 0 1.51 1.51 0 0 1-1.11-.49A1.48 1.48 0 0 1 4 14.34 1.59 1.59 0 0 1 5.64 13a1 1 0 1 0 0-2A3.61 3.61 0 0 0 2 14.14a3.53 3.53 0 0 0 .88 2.71A3.47 3.47 0 0 0 5 18l.14 2.59h0l.19 3.72a3 3 0 0 0 3 2.72H23.67a3 3 0 0 0 3-2.77L27 18a3.47 3.47 0 0 0 2.1-1.11A3.53 3.53 0 0 0 30 14.14 3.61 3.61 0 0 0 26.36 11zM12 28H9a1 1 0 0 0 0 2h3a1 1 0 0 0 0-2zM23 28H20a1 1 0 0 0 0 2h3a1 1 0 0 0 0-2z"/><path d="M14.38 10.08A1 1 0 0 0 13.8 10l-.18.06-.18.09-.15.12a1 1 0 0 0-.21.33A1 1 0 0 0 13 11a1 1 0 0 0 .29.71l.15.12.18.09.18.06.2 0a1 1 0 0 0 .38-.08 1 1 0 0 0 .33-.21 1 1 0 0 0 0-1.42A1 1 0 0 0 14.38 10.08zM17.8 10a.64.64 0 0 0-.18.06.76.76 0 0 0-.18.09l-.15.12a1 1 0 0 0-.21.33.94.94 0 0 0 0 .76.93.93 0 0 0 .21.33l.15.12a.76.76 0 0 0 .18.09.64.64 0 0 0 .18.06l.2 0a1.05 1.05 0 0 0 .71-.29 1 1 0 0 0 .21-.33.94.94 0 0 0 0-.76 1.15 1.15 0 0 0-.21-.33A1 1 0 0 0 17.8 10zM15.62 15.92A1 1 0 0 0 16 16l.2 0a.64.64 0 0 0 .18-.06.76.76 0 0 0 .18-.09l.15-.12A1.05 1.05 0 0 0 17 15a.84.84 0 0 0-.08-.38.93.93 0 0 0-.21-.33 1 1 0 0 0-1.09-.21.93.93 0 0 0-.33.21 1 1 0 0 0 0 1.42A1 1 0 0 0 15.62 15.92z"/></g></svg>