<svg xmlns="http://www.w3.org/2000/svg" data-name="Layer 1" viewBox="0 0 64 64"><path fill="none" stroke="#222" stroke-miterlimit="10" stroke-width="3" d="M11.5,4.42H32a0,0,0,0,1,0,0V54.73a0,0,0,0,1,0,0H12.5a1,1,0,0,1-1-1V4.42A0,0,0,0,1,11.5,4.42Z"/><line x1="15.5" x2="15.5" y1="54.73" y2="59.58" fill="none" stroke="#222" stroke-linecap="round" stroke-linejoin="round" stroke-width="3"/><line x1="48.5" x2="48.5" y1="54.73" y2="59.58" fill="none" stroke="#222" stroke-linecap="round" stroke-linejoin="round" stroke-width="3"/><line x1="8" x2="56" y1="4.42" y2="4.42" fill="none" stroke="#222" stroke-linecap="round" stroke-linejoin="round" stroke-width="3"/><line x1="25.75" x2="25.75" y1="30.1" y2="26" fill="none" stroke="#222" stroke-linecap="round" stroke-linejoin="round" stroke-width="3"/><path fill="none" stroke="#222" stroke-miterlimit="10" stroke-width="3" d="M33,4.42H52.5a0,0,0,0,1,0,0V54.73a0,0,0,0,1,0,0H32a0,0,0,0,1,0,0V5.42a1,1,0,0,1,1-1Z" transform="rotate(-180 42.255 29.58)"/><line x1="38.25" x2="38.25" y1="30.1" y2="26" fill="none" stroke="#222" stroke-linecap="round" stroke-linejoin="round" stroke-width="3"/></svg>