<svg xmlns="http://www.w3.org/2000/svg" viewBox="0 0 32 32"><path d="M2.5 20H4v8.5a.5.5 0 0 0 .5.5h2a.5.5 0 0 0 .5-.5V20h18v8.5a.5.5 0 0 0 .5.5h2a.5.5 0 0 0 .5-.5V20h1.5a.5.5 0 0 0 .5-.5v-5a.5.5 0 0 0-.5-.5h-3.592c.056-.157.092-.324.092-.5V13h.5c.827 0 1.5-.673 1.5-1.5s-.673-1.5-1.5-1.5H26v-.5a.5.5 0 0 0-.5-.5h-4a.5.5 0 0 0-.5.5v4c0 .176.036.343.092.5H15v-2h3.5a.5.5 0 0 0 .5-.5v-8a.5.5 0 0 0-.5-.5h-11a.5.5 0 0 0-.5.5v8a.5.5 0 0 0 .5.5H11v2H2.5a.5.5 0 0 0-.5.5v5a.5.5 0 0 0 .5.5zM6 28H5v-8h1v8zm21 0h-1v-8h1v8zm2-9H3v-1h26v1zm-2.5-8a.5.5 0 0 1 0 1H26v-1h.5zM22 13.5V10h3v3.5a.5.5 0 0 1-.5.5h-2a.5.5 0 0 1-.5-.5zM18 4v5H8V4h10zM8 10h10v1H8v-1zm4 2h2v2h-2v-2zm-9 3h26v2H3v-2z"/></svg>