<svg xmlns="http://www.w3.org/2000/svg" viewBox="0 0 100 100"><path d="M26.96 66.61a2.03 2.03 0 0 1-.11 1.16c-.1.24-.25.46-.44.64-.37.38-.88.59-1.41.59-.54 0-1.04-.21-1.41-.59a1.966 1.966 0 0 1-.55-1.8c.02-.13.06-.26.11-.38s.12-.23.19-.34c.07-.11.15-.21.25-.3.74-.75 2.08-.75 2.82 0 .1.09.18.19.25.3.07.11.14.22.19.34.05.12.09.25.11.38zM95 59v30c0 1.1-.9 2-2 2H7c-1.1 0-2-.9-2-2V59c0-1.1.9-2 2-2h16v-4c0-1.1.9-2 2-2s2 .9 2 2v4h4v-8c0-1.1.9-2 2-2s2 .9 2 2v8h4v-4c0-1.1.9-2 2-2s2 .9 2 2v4h50c1.1 0 2 .9 2 2zM9 87h22V61H9v26zm26 0h22V61H35v26zm56-26H61v26h30V61zm-48.15 5.23c-.05-.12-.11-.23-.19-.34-.07-.11-.15-.21-.24-.3a2.022 2.022 0 0 0-2.18-.44c-.13.05-.24.12-.35.19a1.789 1.789 0 0 0-.55.55c-.07.11-.14.22-.19.34-.05.12-.09.25-.11.38a1.998 1.998 0 0 0 .54 1.8c.19.19.41.34.65.44.25.1.5.15.77.15s.52-.05.77-.15c.24-.1.46-.25.65-.44a1.998 1.998 0 0 0 .54-1.8c-.02-.13-.06-.26-.11-.38zM67 69h18c1.1 0 2-.9 2-2s-.9-2-2-2H67c-1.1 0-2 .9-2 2s.9 2 2 2zM26.11 17.34c-.11-.07-.22-.14-.34-.19-.12-.05-.25-.08-.38-.11a2.047 2.047 0 0 0-1.15.11c-.13.05-.24.12-.35.19-.11.07-.21.15-.3.25-.1.09-.18.19-.25.3-.07.11-.14.22-.19.35-.05.12-.08.24-.11.37s-.04.26-.04.39.01.26.04.39.06.26.11.38.12.23.19.34.15.21.25.31a1.998 1.998 0 0 0 1.8.54c.13-.03.25-.06.38-.11.12-.05.23-.12.34-.19.11-.07.21-.15.31-.24.09-.1.17-.2.24-.31.07-.11.14-.22.19-.34.05-.13.08-.25.11-.38s.04-.26.04-.39c0-.53-.21-1.04-.58-1.41-.1-.1-.2-.18-.31-.25zm14.5-.3c-.13.02-.25.06-.38.11-.12.05-.23.12-.34.19-.11.07-.21.15-.3.24-.38.38-.59.89-.59 1.42 0 .53.21 1.04.59 1.41.09.1.19.18.3.25.11.07.22.14.34.19.13.05.25.08.38.11s.26.04.39.04c.53 0 1.04-.21 1.41-.59.38-.37.59-.88.59-1.41 0-.53-.21-1.04-.59-1.42-.46-.46-1.15-.67-1.8-.54zM95 33v8c0 1.1-.9 2-2 2H7c-1.1 0-2-.9-2-2V11c0-1.1.9-2 2-2h52c1.1 0 2 .9 2 2v18.68l8-4.24V11c0-1.1.9-2 2-2h10c1.1 0 2 .9 2 2v14.44l10.94 5.79c.65.35 1.06 1.03 1.06 1.77zM9 39h22V13H9v26zm26 0h22V13H35v26zm56-4.8-10.94-5.79A1.987 1.987 0 0 1 79 26.65V13h-6v13.65c0 .74-.41 1.42-1.06 1.77L61 34.2V39h30v-4.8z"/></svg>