<svg xmlns="http://www.w3.org/2000/svg" width="200" height="200" data-name="Layer 1"><path d="M99.91 32.81c28.18 0 52.64 16.51 59.09 39.85a5.29 5.29 0 0 1-.09 3.15 17.2 17.2 0 0 1 9.68 17.86l-.1.68-8.16 46.53A17.13 17.13 0 0 1 144.8 155v9a3.13 3.13 0 0 1-3.13 3.13h-4.3a3.13 3.13 0 0 1-3.13-3.13v-8.92h-66.3V164a3.13 3.13 0 0 1-3.12 3.13H60.5a3.13 3.13 0 0 1-3.12-3.13v-8.87A17.11 17.11 0 0 1 39.67 141l-8.16-46.51a17.24 17.24 0 0 1 8.81-18.16 5.21 5.21 0 0 1 .08-2.08C46.12 50.13 71 32.81 99.91 32.81Zm45.44 56.94-.1.48-4.78 27.22a10.57 10.57 0 0 1-9.81 8.76H69.9A10.57 10.57 0 0 1 59.62 118l-.12-.58-4.75-27.05a6.52 6.52 0 0 0-7.53-5.32 6.55 6.55 0 0 0-5.35 7.11l.06.49 8.16 46.52a6.53 6.53 0 0 0 7.07 5.39l.48-.07a11.57 11.57 0 0 1 4.06 0l.33.07h74.8a6.24 6.24 0 0 0 1-.07l.47-.08a10.42 10.42 0 0 1 3.25-.15l.88.13a6.52 6.52 0 0 0 7.45-4.84l.1-.48 8.12-46.31.08-.48a6.57 6.57 0 0 0-4.92-7.28l-.46-.1a6.52 6.52 0 0 0-7.45 4.85ZM99.91 43.44c-23.33 0-43.16 13.18-48.66 31.14a17.15 17.15 0 0 1 13.91 14l4.74 27.08h60.17l4.78-27.22a17.15 17.15 0 0 1 13.68-13.91c-5.53-18-25.39-31.09-48.62-31.09Z"/></svg>