<svg xmlns="http://www.w3.org/2000/svg" data-name="Camada 1" viewBox="0 0 100 100"><path d="M79.54 33.55c-2.33-3-8.49-7.93-12.46-10.38L67.17 6h5V0H27.88v6h4.95l.09 17.16c-4 2.45-10.13 7.39-12.46 10.38-8.31 10.63-7.84 24.47 1.3 39l.27.43c4.4 7 8.59 13.59 11.11 21.06H25.5v6h49V94h-7.64c2.52-7.47 6.71-14.1 11.11-21.06l.27-.43c9.14-14.51 9.61-28.33 1.3-38.96Zm-6.37 35.74-.27.43C68.15 77.24 63.24 85 60.57 94H39.43c-2.67-9-7.58-16.75-12.33-24.27l-.27-.42c-5.44-8.62-10.14-21.18-1.64-32.06 1.93-2.48 8.94-8.07 12.08-9.64l1.67-.84L38.83 6h22.34l-.11 20.75 1.67.84c3.14 1.57 10.15 7.16 12.08 9.64 8.5 10.89 3.8 23.45-1.64 32.06Z"/></svg>